# xmcd CD database file
#
# Track frame offsets:
#	150
#	23722
#	47327
#
# Disc length: 867 seconds
#
# Revision: 0
# Processed by: cddbd v1.5PL3 Copyright (c) Steve Scherf et al.
# Submitted via: CDex 1.51
#
DISCID=16036103
DTITLE=西野妙子 - 悲しい女になっちゃうよ
DYEAR=1992
DGENRE=JPop
TTITLE0=悲しい女になっちゃうよ
TTITLE1=悲しい女になっちゃうよ（カラオケ）
TTITLE2=Promise〜放課後の花嫁
EXTD=YEAR: 1992
EXTT0=
EXTT1=
EXTT2=
PLAYORDER=
